<?xml version="1.0" standalone="no"?><!DOCTYPE svg PUBLIC "-//W3C//DTD SVG 1.1//EN" "http://www.w3.org/Graphics/SVG/1.1/DTD/svg11.dtd"><svg class="icon" width="200px" height="200.00px" viewBox="0 0 1024 1024" version="1.1" xmlns="http://www.w3.org/2000/svg"><path fill="#333333" d="M768 0 256 0c-35.376 0-64 28.656-64 64l0 896c0 35.376 28.626 64 64 64l512 0c35.376 0 64-28.626 64-64L832 64C832 28.656 803.376 0 768 0zM400 64l224 0c8.876 0 16 7.156 16 16s-7.126 16-16 16L400 96c-8.876 0-16-7.156-16-16S391.126 64 400 64zM512 992c-26.5 0-48-21.5-48-48s21.5-48 48-48 48 21.5 48 48S538.5 992 512 992zM768 864 256 864 256 160l512 0L768 864z" /></svg>