<?xml version="1.0" standalone="no"?><!DOCTYPE svg PUBLIC "-//W3C//DTD SVG 1.1//EN" "http://www.w3.org/Graphics/SVG/1.1/DTD/svg11.dtd"><svg class="icon" width="200px" height="200.00px" viewBox="0 0 1024 1024" version="1.1" xmlns="http://www.w3.org/2000/svg"><path fill="#333333" d="M960 224c0-1.344-0.64-2.496-0.768-3.84-0.256-2.176-0.576-4.224-1.28-6.336-0.704-2.112-1.792-4.032-2.88-5.888-0.64-1.088-0.896-2.368-1.664-3.456-0.448-0.576-1.088-0.832-1.536-1.344-1.472-1.728-3.2-3.008-5.056-4.352-1.6-1.152-3.072-2.368-4.8-3.264-1.728-0.896-3.648-1.28-5.568-1.856-2.176-0.576-4.288-1.152-6.528-1.28C929.28 192.32 928.704 192 928 192l-832 0C95.296 192 94.656 192.384 93.952 192.384 91.776 192.576 89.792 193.088 87.68 193.664c-1.984 0.576-3.904 1.024-5.696 1.92-1.728 0.832-3.2 2.048-4.736 3.2C75.392 200.128 73.664 201.472 72.128 203.2 71.68 203.712 71.04 203.968 70.656 204.48 69.824 205.568 69.632 206.848 68.928 207.936 67.84 209.856 66.752 211.712 66.048 213.824 65.344 215.936 65.024 217.984 64.768 220.16 64.64 221.504 64 222.656 64 224l0 576c0 0.576 0.32 1.024 0.32 1.6 0.128 2.176 0.704 4.224 1.28 6.336 0.512 1.984 0.832 3.904 1.728 5.696 0.768 1.664 1.984 3.008 3.008 4.48 1.408 1.92 2.688 3.84 4.48 5.44 0.384 0.32 0.512 0.832 0.96 1.152 1.408 1.152 3.072 1.728 4.608 2.624 1.408 0.832 2.624 1.728 4.16 2.304C88.256 831.104 92.096 832 96 832l832 0c3.904 0 7.744-0.896 11.52-2.304 1.536-0.576 2.752-1.536 4.16-2.304 1.536-0.896 3.2-1.472 4.608-2.624 0.384-0.32 0.576-0.832 0.96-1.152 1.792-1.6 3.072-3.52 4.48-5.44 1.088-1.536 2.24-2.88 3.008-4.48 0.832-1.792 1.216-3.776 1.728-5.696 0.576-2.112 1.152-4.16 1.28-6.336 0-0.576 0.32-1.024 0.32-1.6L960.064 224zM128 289.024l211.584 162.752L128 710.4 128 289.024zM512 503.616 190.08 256l643.84 0L512 503.616zM390.336 490.752l102.208 78.592C498.24 573.824 505.152 576 512 576s13.76-2.176 19.52-6.656l102.208-78.592L860.48 768 163.52 768 390.336 490.752zM684.416 451.776 896 289.024 896 710.4 684.416 451.776z" /></svg>